<svg width="108" height="108" viewBox="0 0 108 108" fill="none" xmlns="http://www.w3.org/2000/svg">
<g filter="url(#filter0_i)">
<path fill-rule="evenodd" clip-rule="evenodd" d="M4.17967 50.8783L89.1577 13.9314C93.7528 11.9335 98.6277 16.115 97.3525 20.9608L80.1387 86.3732C79.0907 90.3555 74.4343 92.1227 71.008 89.8385L55.6503 79.6C53.2605 78.0068 50.0101 79.0298 48.9635 81.7044L44.0195 94.339C41.9224 99.6983 34.2143 99.3172 32.6562 93.7771L24.6459 65.2963C24.242 63.86 23.1524 62.7174 21.737 62.2455L4.42716 56.4756C1.81749 55.6057 1.65696 51.9752 4.17967 50.8783ZM44.7832 56.2733C42.9953 57.7037 41.8198 59.7617 41.496 62.0283L39.8761 80.8674C39.5048 83.466 35.7417 83.433 35.4161 80.8283L33.7371 59.8961C33.29 56.3199 35.0196 52.8218 38.1327 51.0058L63.5452 34.9319C65.9531 33.5272 68.2613 36.8909 66.0845 38.6323L44.7832 56.2733Z" fill="#714535"/>
</g>
<defs>
<filter id="filter0_i" x="2.37573" y="13.4207" width="95.1829" height="87.7323" filterUnits="userSpaceOnUse" color-interpolation-filters="sRGB">
<feFlood flood-opacity="0" result="BackgroundImageFix"/>
<feBlend mode="normal" in="SourceGraphic" in2="BackgroundImageFix" result="shape"/>
<feColorMatrix in="SourceAlpha" type="matrix" values="0 0 0 0 0 0 0 0 0 0 0 0 0 0 0 0 0 0 127 0" result="hardAlpha"/>
<feOffset dy="3"/>
<feGaussianBlur stdDeviation="3"/>
<feComposite in2="hardAlpha" operator="arithmetic" k2="-1" k3="1"/>
<feColorMatrix type="matrix" values="0 0 0 0 0 0 0 0 0 0 0 0 0 0 0 0 0 0 0.16 0"/>
<feBlend mode="normal" in2="shape" result="effect1_innerShadow"/>
</filter>
</defs>
</svg>
