<svg width="16" height="16" viewBox="0 0 16 16" fill="none" xmlns="http://www.w3.org/2000/svg">
<path fill-rule="evenodd" clip-rule="evenodd" d="M5.07105 2C4.47952 2 3.99999 2.47953 3.99999 3.07107C3.99999 3.60409 4.39192 4.05599 4.91958 4.13137L7.97959 4.56852C8.36266 4.62324 8.54105 5.07367 8.29932 5.37584L6.99999 7L2.45266 12.4568C2.19629 12.7644 2.21681 13.2168 2.49999 13.5C2.78316 13.7832 3.23555 13.8037 3.5432 13.5473L8.99999 9L10.6241 7.70067C10.9263 7.45894 11.3767 7.63733 11.4315 8.02039L11.8686 11.0804C11.944 11.6081 12.3959 12 12.9289 12C13.5205 12 14 11.5205 14 10.9289V3.65803C14 2.74233 13.2577 2 12.342 2H5.07105Z" fill="black"/>
</svg>
