<?xml version="1.0" encoding="UTF-8"?>
<svg width="28px" height="29px" viewBox="0 0 28 29" version="1.1" xmlns="http://www.w3.org/2000/svg" xmlns:xlink="http://www.w3.org/1999/xlink">
    <!-- Generator: Sketch 50.2 (55047) - http://www.bohemiancoding.com/sketch -->
    <title>Group</title>
    <desc>Created with Sketch.</desc>
    <defs></defs>
    <g id="💅" stroke="none" stroke-width="1" fill="none" fill-rule="evenodd">
        <g id="Desktop-Copy-7" transform="translate(-102.000000, -64.000000)">
            <g id="Group-3" transform="translate(100.000000, 60.000000)">
                <g id="Group" transform="translate(0.000000, 2.000000)">
                    <rect id="Rectangle-5" x="0" y="0" width="32" height="32"></rect>
                    <path d="M29.872743,23.3227931 C29.707975,27.5069314 26.2603164,30.8484848 22.0313727,30.8484848 C17.802429,30.8484848 14.3547704,27.5069314 14.1900023,23.3227931 L14.1900024,22.0142222 C12.9464667,22.840998 11.4533242,23.3227931 9.84753363,23.3227931 C5.61858991,23.3227931 2.1709313,19.9812397 2.00616329,15.7971014 L2,15.7971014 L2,13.5412467 C2,12.5704144 2.78701515,11.7833992 3.75784753,11.7833992 C4.72867992,11.7833992 5.51569507,12.5704144 5.51569507,13.5412467 L5.51569507,15.7971014 L5.51614074,15.7971014 C5.51584396,15.8179707 5.51569507,15.8388758 5.51569507,15.8598155 C5.51569507,18.2497023 7.45512525,20.1870883 9.84753363,20.1870883 C12.239942,20.1870883 14.1793722,18.2497023 14.1793722,15.8598155 C14.1793722,15.8388758 14.1792233,15.8179707 14.1789265,15.7971014 L14.1793722,15.7971014 L14.1793722,3.75784753 C14.1793722,2.78701515 14.9663873,2 15.9372197,2 C16.9080521,2 17.6950673,2.78701515 17.6950673,3.75784753 L17.6950673,9.5256917 L17.7056975,9.5256917 L17.7056975,11.8399963 L28.3617342,11.8399963 C29.2285488,11.8399963 29.9312409,12.5426884 29.9312409,13.4095031 C29.9312409,14.2763177 29.2285488,14.9790098 28.3617342,14.9790098 L17.7056975,14.9790098 L17.7056975,23.3227931 L17.6999798,23.3227931 C17.699683,23.3436624 17.6995341,23.3645675 17.6995341,23.3855072 C17.6995341,25.775394 19.6389643,27.71278 22.0313727,27.71278 C24.4237811,27.71278 26.3632113,25.775394 26.3632113,23.3855072 C26.3632113,23.3645675 26.3630624,23.3436624 26.3627656,23.3227931 L26.3600006,23.3227931 L26.3600006,21.0669384 C26.3600006,20.0961061 27.1470158,19.3090909 28.1178481,19.3090909 C29.0886805,19.3090909 29.8756957,20.0961061 29.8756957,21.0669384 L29.8756957,23.3227931 L29.872743,23.3227931 Z" id="JT-Logo" fill="#191919"></path>
                </g>
            </g>
        </g>
    </g>
</svg>